<svg width="24" height="24" viewBox="0 0 24 24" fill="none" xmlns="http://www.w3.org/2000/svg">
<path d="M12 4C9.80281 4 7.49885 4 5.62977 4.41455C5.01526 4.55084 4.5418 5.03093 4.37811 5.63871C4 7.04256 4 7.94304 4 10.1277C4 12.3123 4 13.2128 4.37811 14.6166C4.5418 15.2244 5.01526 15.7045 5.62977 15.8408C7.49885 16.2553 9.80281 16.2553 12 16.2553C14.1972 16.2553 16.5012 16.2553 18.3702 15.8408C18.9847 15.7045 19.4582 15.2244 19.6219 14.6166C20 13.2128 20 12.3123 20 10.1277C20 7.94304 20 7.04256 19.6219 5.63871C19.4582 5.03093 18.9847 4.55084 18.3702 4.41455C16.5012 4 14.1972 4 12 4Z" fill="#D8E6FF"/>
<path d="M12 4C9.80281 4 7.49885 4 5.62977 4.41455C5.01526 4.55084 4.5418 5.03093 4.37811 5.63871C4 7.04256 4 7.94304 4 10.1277C4 12.3123 4 13.2128 4.37811 14.6166C4.5418 15.2244 5.01526 15.7045 5.62977 15.8408C7.49885 16.2553 9.80281 16.2553 12 16.2553C14.1972 16.2553 16.5012 16.2553 18.3702 15.8408C18.9847 15.7045 19.4582 15.2244 19.6219 14.6166C20 13.2128 20 12.3123 20 10.1277C20 7.94304 20 7.04256 19.6219 5.63871C19.4582 5.03093 18.9847 4.55084 18.3702 4.41455C16.5012 4 14.1972 4 12 4Z" stroke="#124BAA" stroke-width="1.5"/>
<path d="M12 16.2491V19.9998" stroke="#124BAA" stroke-width="1.5" stroke-linecap="round" stroke-linejoin="round"/>
<path d="M8.65417 20H15.3459" stroke="#124BAA" stroke-width="1.5" stroke-linecap="round" stroke-linejoin="round"/>
<path d="M8.77423 10.9512L11.1203 13.422C12.2242 10.1833 13.1436 8.76214 15.2258 6.8331" stroke="#124BAA" stroke-width="1.5" stroke-linecap="round" stroke-linejoin="round"/>
</svg>
