<svg width="24" height="24" viewBox="0 0 24 24" fill="none" xmlns="http://www.w3.org/2000/svg">
<path d="M13.9389 18.346C13.772 18.5114 13.5478 18.6054 13.3149 18.6076C13.0821 18.6097 12.8596 18.5199 12.6957 18.3575L10.5875 16.2493L5.44356 19.6679C5.35864 19.7255 5.25675 19.7521 5.15557 19.7428C5.05439 19.7335 4.96032 19.689 4.88969 19.617C4.81906 19.5456 4.77549 19.4516 4.76624 19.3509C4.75698 19.2501 4.78261 19.1485 4.83884 19.0631L8.26017 13.9219L6.15196 11.8137C5.98838 11.6502 5.89746 11.4272 5.8991 11.1937C5.90075 10.9602 5.99481 10.7352 6.16072 10.5678C7.11588 9.61263 8.52692 9.31117 9.92994 9.57253L11.8035 7.69895L11.2376 7.13306C11.1563 7.05246 11.092 6.95625 11.0485 6.84997C11.005 6.7437 10.9832 6.62947 10.9843 6.51388C10.9854 6.39829 11.0093 6.28364 11.0548 6.17654C11.1002 6.06944 11.1663 5.97201 11.2492 5.88989L13.3064 3.83263C13.3888 3.75024 13.4863 3.68459 13.5934 3.63942C13.7005 3.59426 13.815 3.57046 13.9304 3.56939C14.0458 3.56832 14.1599 3.59 14.2662 3.63318C14.3724 3.67637 14.4687 3.74022 14.5496 3.82109L20.6856 9.95708C20.8492 10.1207 20.9401 10.3436 20.9385 10.5771C20.9368 10.8106 20.8427 11.0357 20.6768 11.203L18.6196 13.2603C18.537 13.3429 18.4391 13.4087 18.3317 13.4539C18.2243 13.4991 18.1094 13.5227 17.9936 13.5236C17.8778 13.5244 17.7635 13.5023 17.6571 13.4586C17.5507 13.415 17.4544 13.3505 17.3736 13.2691L16.8022 12.6976L14.9286 14.5712C15.2066 15.9909 14.8941 17.3908 13.9389 18.346Z" fill="#FF6157"/>
</svg>
